<svg width="80" height="80" viewBox="0 0 80 80" fill="none" xmlns="http://www.w3.org/2000/svg">
<path d="M76.1486 53.7837L57.3044 45.3396L57.2524 45.3156C56.2742 44.8972 55.207 44.7293 54.1475 44.8271C53.088 44.9249 52.0696 45.2852 51.1844 45.8756C51.0802 45.9445 50.98 46.0193 50.8844 46.0996L41.1483 54.3997C34.9803 51.4037 28.6122 45.0836 25.6162 38.9956L33.9283 29.1115C34.0083 29.0115 34.0843 28.9115 34.1563 28.8035C34.734 27.9207 35.0845 26.9087 35.1766 25.8577C35.2687 24.8067 35.0996 23.7493 34.6843 22.7794V22.7314L26.2162 3.85523C25.6672 2.58827 24.7231 1.53287 23.525 0.846553C22.3268 0.16024 20.9388 -0.120167 19.5682 0.047191C14.148 0.760425 9.17282 3.4223 5.57181 7.53565C1.9708 11.649 -0.00976379 16.9325 3.61948e-05 22.3994C3.61948e-05 54.1597 25.8402 80 57.6004 80C63.0673 80.0098 68.3508 78.0292 72.4642 74.4282C76.5775 70.8272 79.2394 65.8519 79.9526 60.4318C80.1203 59.0616 79.8404 57.674 79.1549 56.4759C78.4693 55.2778 77.4148 54.3334 76.1486 53.7837ZM57.6004 73.5999C44.0258 73.5851 31.0114 68.186 21.4127 58.5872C11.814 48.9885 6.4149 35.9741 6.40008 22.3994C6.38503 18.4933 7.79229 14.7153 10.3591 11.7709C12.9258 8.82655 16.4766 6.91712 20.3482 6.39925C20.3466 6.41521 20.3466 6.43129 20.3482 6.44725L28.7482 25.2474L20.4802 35.1435C20.3963 35.2401 20.32 35.3431 20.2522 35.4515C19.6502 36.3752 19.2971 37.4387 19.227 38.539C19.1569 39.6393 19.3723 40.739 19.8522 41.7316C23.4762 49.1437 30.9443 56.5557 38.4363 60.1758C39.4362 60.6512 40.5423 60.8591 41.6465 60.7791C42.7507 60.6992 43.8154 60.3342 44.7364 59.7198C44.8391 59.6506 44.9379 59.5758 45.0324 59.4958L54.7564 51.1997L73.5566 59.6198C73.5566 59.6198 73.5886 59.6198 73.6006 59.6198C73.089 63.4969 71.1824 67.0548 68.2375 69.6279C65.2926 72.201 61.5111 73.6131 57.6004 73.5999Z" fill="black"/>
</svg>
