<svg width="70" height="89" viewBox="0 0 70 89" fill="none" xmlns="http://www.w3.org/2000/svg">
<path d="M35 19.0716C31.8535 19.0716 28.7776 20.0037 26.1614 21.7501C23.5451 23.4964 21.506 25.9786 20.3019 28.8826C19.0978 31.7867 18.7827 34.9823 19.3966 38.0652C20.0105 41.1482 21.5256 43.98 23.7506 46.2027C25.9755 48.4254 28.8102 49.939 31.8963 50.5523C34.9824 51.1655 38.1811 50.8508 41.0882 49.6479C43.9952 48.445 46.4798 46.4079 48.2279 43.7943C49.976 41.1807 50.9091 38.108 50.9091 34.9646C50.9091 30.7495 49.233 26.7071 46.2494 23.7266C43.2659 20.7461 39.2194 19.0716 35 19.0716ZM35 44.5004C33.1121 44.5004 31.2666 43.9412 29.6968 42.8934C28.1271 41.8456 26.9036 40.3563 26.1812 38.6138C25.4587 36.8714 25.2696 34.9541 25.638 33.1043C26.0063 31.2545 26.9154 29.5554 28.2503 28.2218C29.5853 26.8882 31.2861 25.98 33.1378 25.6121C34.9894 25.2441 36.9087 25.433 38.6529 26.1547C40.3971 26.8764 41.8879 28.0987 42.9368 29.6668C43.9856 31.235 44.5455 33.0786 44.5455 34.9646C44.5455 37.4937 43.5398 39.9192 41.7497 41.7075C39.9595 43.4958 37.5316 44.5004 35 44.5004ZM35 0C25.7207 0.0105161 16.8244 3.69766 10.2629 10.2525C3.7014 16.8074 0.0105268 25.6947 0 34.9646C0 47.4407 5.77102 60.6636 16.7045 73.2072C21.6174 78.8753 27.1467 83.9793 33.1903 88.4248C33.7253 88.7992 34.3627 89 35.0159 89C35.6691 89 36.3065 88.7992 36.8415 88.4248C42.874 83.9774 48.3926 78.8735 53.2955 73.2072C64.2131 60.6636 70 47.4407 70 34.9646C69.9895 25.6947 66.2986 16.8074 59.7371 10.2525C53.1756 3.69766 44.2793 0.0105161 35 0ZM35 81.849C28.4256 76.6838 6.36364 57.7115 6.36364 34.9646C6.36364 27.3775 9.38067 20.1011 14.751 14.7361C20.1214 9.37119 27.4052 6.35721 35 6.35721C42.5948 6.35721 49.8786 9.37119 55.249 14.7361C60.6193 20.1011 63.6364 27.3775 63.6364 34.9646C63.6364 57.7036 41.5744 76.6838 35 81.849Z" fill="black"/>
</svg>
