<svg width="80" height="62" viewBox="0 0 80 62" fill="none" xmlns="http://www.w3.org/2000/svg">
<path d="M76.9231 0H3.07692C2.26087 0 1.47824 0.326607 0.90121 0.90797C0.324175 1.48933 0 2.27783 0 3.1V55.8C0 57.4443 0.64835 59.0213 1.80242 60.1841C2.95649 61.3468 4.52174 62 6.15385 62H73.8462C75.4783 62 77.0435 61.3468 78.1976 60.1841C79.3516 59.0213 80 57.4443 80 55.8V3.1C80 2.27783 79.6758 1.48933 79.0988 0.90797C78.5218 0.326607 77.7391 0 76.9231 0ZM69.0115 6.2L40 32.9956L10.9885 6.2H69.0115ZM73.8462 55.8H6.15385V10.1486L37.9192 39.4862C38.4869 40.0113 39.2294 40.3026 40 40.3026C40.7706 40.3026 41.5131 40.0113 42.0808 39.4862L73.8462 10.1486V55.8Z" fill="black"/>
</svg>
