<svg width="1727" height="141" viewBox="0 0 1727 141" fill="none" xmlns="http://www.w3.org/2000/svg">
<g clip-path="url(#clip0_119_5)">
<path d="M1496 0C1565.08 0 1624.65 40.7251 1652.01 99.4756C1664.12 73.2205 1690.68 55 1721.5 55C1762.58 55 1796.09 87.3748 1797.92 128H1798V344H-55V128H-52.7178C-43.5404 88.4773 -7.7516 59 35 59C65.927 59 93.2091 74.4271 109.41 97.9229C118.677 94.7338 128.634 93 139 93C155.198 93 170.397 97.2322 183.527 104.639C200.016 84.141 225.456 71 254 71C285.353 71 312.96 86.8544 329.073 110.897C339.932 104.581 352.333 101 365.5 101C376.477 101 386.92 103.489 396.382 107.976C415.756 92.9473 440.083 84 466.5 84C489.457 84 510.834 90.7576 528.755 102.39C549.729 75.9548 582.134 59 618.5 59C655.913 59 689.134 76.9456 710.028 104.697C725.254 97.2078 742.386 93 760.5 93C779.488 93 797.395 97.6236 813.16 105.804C823.596 92.5268 839.803 84 858 84C867.501 84 876.459 86.3249 884.337 90.4365C898.553 73.6534 919.783 63 943.5 63C962.996 63 980.81 70.1995 994.43 82.084C1007.72 75.0096 1022.89 71 1039 71C1060.66 71 1080.63 78.2495 1096.61 90.4531C1111.65 82.5017 1128.8 78 1147 78C1165.47 78 1182.86 82.6392 1198.07 90.8145C1217.88 67.0928 1247.68 52 1281 52C1308.04 52 1332.76 61.9369 1351.7 78.3584C1382.38 31.1917 1435.54 0 1496 0Z" fill="white"/>
</g>
<defs>
<clipPath id="clip0_119_5">
<rect width="1728" height="141" fill="white" transform="translate(-1)"/>
</clipPath>
</defs>
</svg>
