<svg width="80" height="80" viewBox="0 0 80 80" fill="none" xmlns="http://www.w3.org/2000/svg">
<path d="M62.9302 46.4769L50.6213 40.3231C50.1368 40.0817 49.5971 39.9723 49.0568 40.0061C48.5166 40.0398 47.9947 40.2155 47.5441 40.5154L41.8935 44.2846C39.2996 42.8588 37.165 40.7244 35.7391 38.1308L39.5087 32.4808C39.8086 32.0301 39.9843 31.5084 40.018 30.9681C40.0518 30.4279 39.9424 29.8883 39.701 29.4038L33.5466 17.0962C33.2915 16.581 32.8972 16.1477 32.4084 15.8452C31.9196 15.5427 31.3558 15.3831 30.7809 15.3846C26.7003 15.3846 22.7868 17.0055 19.9013 19.8907C17.0159 22.7758 15.3948 26.689 15.3948 30.7692C15.405 39.7427 18.9745 48.3457 25.3203 54.6908C31.6661 61.036 40.2699 64.6052 49.2442 64.6154C51.2648 64.6154 53.2655 64.2175 55.1322 63.4443C56.999 62.6712 58.6951 61.5379 60.1238 60.1093C61.5526 58.6807 62.6859 56.9848 63.4591 55.1182C64.2323 53.2517 64.6303 51.2511 64.6303 49.2308C64.6307 48.6591 64.4719 48.0987 64.1716 47.6123C63.8713 47.1259 63.4414 46.7327 62.9302 46.4769ZM49.2442 58.4615C41.9016 58.4534 34.862 55.5332 29.6699 50.3417C24.4779 45.1501 21.5574 38.1112 21.5493 30.7692C21.5487 28.6351 22.2877 26.5666 23.6405 24.9159C24.9933 23.2652 26.8763 22.1342 28.9692 21.7154L33.385 30.5615L29.627 36.1538C29.3461 36.5751 29.1736 37.059 29.1246 37.5629C29.0756 38.0667 29.1517 38.5749 29.3462 39.0423C31.5479 44.2746 35.7107 48.437 40.9434 50.6385C41.4123 50.8415 41.9243 50.9246 42.4334 50.8803C42.9424 50.836 43.4324 50.6656 43.8591 50.3846L49.4789 46.6385L58.3259 51.0538C57.9037 53.1489 56.7677 55.0326 55.1115 56.3835C53.4553 57.7345 51.3816 58.4689 49.2442 58.4615ZM40.0126 9.52598e-07C33.106 -0.001506 26.3167 1.78495 20.3055 5.1855C14.2943 8.58604 9.26595 13.4848 5.70994 19.405C2.15393 25.3252 0.191371 32.0651 0.0133011 38.9687C-0.164769 45.8723 1.44771 52.7044 4.6938 58.8L0.327993 71.8961C-0.0336391 72.9804 -0.0861205 74.144 0.176432 75.2564C0.438984 76.3689 1.00619 77.3862 1.81449 78.1944C2.62278 79.0026 3.64021 79.5698 4.75275 79.8323C5.86529 80.0948 7.02897 80.0424 8.11336 79.6808L21.2108 75.3154C26.5758 78.1687 32.5204 79.7623 38.5933 79.9754C44.6663 80.1885 50.7079 79.0154 56.2598 76.5451C61.8116 74.0749 66.7276 70.3724 70.6348 65.7188C74.5419 61.0651 77.3374 55.5826 78.8091 49.6874C80.2808 43.7922 80.39 37.6392 79.1284 31.6955C77.8668 25.7518 75.2676 20.1736 71.528 15.3843C67.7885 10.595 63.0069 6.72046 57.5462 4.05482C52.0855 1.38919 46.0892 0.00249319 40.0126 9.52598e-07ZM40.0126 73.8462C34.0619 73.8502 28.2157 72.2833 23.0648 69.3038C22.6877 69.0852 22.2684 68.9491 21.8347 68.9047C21.401 68.8603 20.9628 68.9085 20.5492 69.0462L6.16317 73.8462L10.9598 59.4615C11.098 59.0482 11.1469 58.6102 11.1032 58.1766C11.0594 57.7429 10.924 57.3235 10.7059 56.9462C6.97467 50.4958 5.4766 42.9945 6.44408 35.606C7.41156 28.2175 10.7905 21.3547 16.0568 16.0823C21.323 10.8099 28.1822 7.42258 35.5702 6.44586C42.9582 5.46914 50.4621 6.95759 56.9178 10.6803C63.3734 14.4031 68.42 20.152 71.2746 27.0352C74.1292 33.9184 74.6323 41.5513 72.7058 48.7496C70.7793 55.9479 66.5309 62.3093 60.6197 66.847C54.7085 71.3847 47.4649 73.8449 40.0126 73.8462Z" fill="black"/>
</svg>
